<svg version="1.1" xmlns="http://www.w3.org/2000/svg" xmlns:xlink="http://www.w3.org/1999/xlink" width="800" height="800"><defs/><g transform="scale(2,2)"><g id="background-b810d0c8"><rect fill="white" stroke="none" x="0" y="0" width="400" height="400" class="dcg-svg-background"/></g><g id="graphpaper-b810d0c8"><g id="grid-b810d0c8"><g><path fill="none" stroke="rgb(0,0,0)" class="dcg-svg-minor-gridline" paint-order="fill stroke markers" d=" M 27.5 0 L 27.5 400" stroke-opacity="0.2" stroke-miterlimit="10" stroke-dasharray=""/><path fill="none" stroke="rgb(0,0,0)" class="dcg-svg-minor-gridline" paint-order="fill stroke markers" d=" M 58.5 0 L 58.5 400" stroke-opacity="0.2" stroke-miterlimit="10" stroke-dasharray=""/><path fill="none" stroke="rgb(0,0,0)" class="dcg-svg-minor-gridline" paint-order="fill stroke markers" d=" M 88.5 0 L 88.5 400" stroke-opacity="0.2" stroke-miterlimit="10" stroke-dasharray=""/><path fill="none" stroke="rgb(0,0,0)" class="dcg-svg-minor-gridline" paint-order="fill stroke markers" d=" M 119.5 0 L 119.5 400" stroke-opacity="0.2" stroke-miterlimit="10" stroke-dasharray=""/><path fill="none" stroke="rgb(0,0,0)" class="dcg-svg-minor-gridline" paint-order="fill stroke markers" d=" M 180.5 0 L 180.5 400" stroke-opacity="0.2" stroke-miterlimit="10" stroke-dasharray=""/><path fill="none" stroke="rgb(0,0,0)" class="dcg-svg-minor-gridline" paint-order="fill stroke markers" d=" M 211.5 0 L 211.5 400" stroke-opacity="0.2" stroke-miterlimit="10" stroke-dasharray=""/><path fill="none" stroke="rgb(0,0,0)" class="dcg-svg-minor-gridline" paint-order="fill stroke markers" d=" M 241.5 0 L 241.5 400" stroke-opacity="0.2" stroke-miterlimit="10" stroke-dasharray=""/><path fill="none" stroke="rgb(0,0,0)" class="dcg-svg-minor-gridline" paint-order="fill stroke markers" d=" M 272.5 0 L 272.5 400" stroke-opacity="0.2" stroke-miterlimit="10" stroke-dasharray=""/><path fill="none" stroke="rgb(0,0,0)" class="dcg-svg-minor-gridline" paint-order="fill stroke markers" d=" M 302.5 0 L 302.5 400" stroke-opacity="0.2" stroke-miterlimit="10" stroke-dasharray=""/><path fill="none" stroke="rgb(0,0,0)" class="dcg-svg-minor-gridline" paint-order="fill stroke markers" d=" M 333.5 0 L 333.5 400" stroke-opacity="0.2" stroke-miterlimit="10" stroke-dasharray=""/><path fill="none" stroke="rgb(0,0,0)" class="dcg-svg-minor-gridline" paint-order="fill stroke markers" d=" M 363.5 0 L 363.5 400" stroke-opacity="0.2" stroke-miterlimit="10" stroke-dasharray=""/><path fill="none" stroke="rgb(0,0,0)" class="dcg-svg-minor-gridline" paint-order="fill stroke markers" d=" M 394.5 0 L 394.5 400" stroke-opacity="0.2" stroke-miterlimit="10" stroke-dasharray=""/><path fill="none" stroke="rgb(0,0,0)" class="dcg-svg-minor-gridline" paint-order="fill stroke markers" d=" M 0 383.5 L 400 383.5" stroke-opacity="0.2" stroke-miterlimit="10" stroke-dasharray=""/><path fill="none" stroke="rgb(0,0,0)" class="dcg-svg-minor-gridline" paint-order="fill stroke markers" d=" M 0 353.5 L 400 353.5" stroke-opacity="0.2" stroke-miterlimit="10" stroke-dasharray=""/><path fill="none" stroke="rgb(0,0,0)" class="dcg-svg-minor-gridline" paint-order="fill stroke markers" d=" M 0 322.5 L 400 322.5" stroke-opacity="0.2" stroke-miterlimit="10" stroke-dasharray=""/><path fill="none" stroke="rgb(0,0,0)" class="dcg-svg-minor-gridline" paint-order="fill stroke markers" d=" M 0 292.5 L 400 292.5" stroke-opacity="0.2" stroke-miterlimit="10" stroke-dasharray=""/><path fill="none" stroke="rgb(0,0,0)" class="dcg-svg-minor-gridline" paint-order="fill stroke markers" d=" M 0 261.5 L 400 261.5" stroke-opacity="0.2" stroke-miterlimit="10" stroke-dasharray=""/><path fill="none" stroke="rgb(0,0,0)" class="dcg-svg-minor-gridline" paint-order="fill stroke markers" d=" M 0 231.5 L 400 231.5" stroke-opacity="0.2" stroke-miterlimit="10" stroke-dasharray=""/><path fill="none" stroke="rgb(0,0,0)" class="dcg-svg-minor-gridline" paint-order="fill stroke markers" d=" M 0 169.5 L 400 169.5" stroke-opacity="0.2" stroke-miterlimit="10" stroke-dasharray=""/><path fill="none" stroke="rgb(0,0,0)" class="dcg-svg-minor-gridline" paint-order="fill stroke markers" d=" M 0 139.5 L 400 139.5" stroke-opacity="0.2" stroke-miterlimit="10" stroke-dasharray=""/><path fill="none" stroke="rgb(0,0,0)" class="dcg-svg-minor-gridline" paint-order="fill stroke markers" d=" M 0 108.5 L 400 108.5" stroke-opacity="0.2" stroke-miterlimit="10" stroke-dasharray=""/><path fill="none" stroke="rgb(0,0,0)" class="dcg-svg-minor-gridline" paint-order="fill stroke markers" d=" M 0 78.5 L 400 78.5" stroke-opacity="0.2" stroke-miterlimit="10" stroke-dasharray=""/><path fill="none" stroke="rgb(0,0,0)" class="dcg-svg-minor-gridline" paint-order="fill stroke markers" d=" M 0 47.5 L 400 47.5" stroke-opacity="0.2" stroke-miterlimit="10" stroke-dasharray=""/><path fill="none" stroke="rgb(0,0,0)" class="dcg-svg-minor-gridline" paint-order="fill stroke markers" d=" M 0 17.5 L 400 17.5" stroke-opacity="0.2" stroke-miterlimit="10" stroke-dasharray=""/><path fill="none" stroke="rgb(0,0,0)" class="dcg-svg-major-gridline" paint-order="fill stroke markers" d=" M 302.5 0 L 302.5 400" stroke-opacity="0.2500000000000001" stroke-miterlimit="10" stroke-dasharray=""/><path fill="none" stroke="rgb(0,0,0)" class="dcg-svg-major-gridline" paint-order="fill stroke markers" d=" M 0 353.5 L 400 353.5" stroke-opacity="0.2500000000000001" stroke-miterlimit="10" stroke-dasharray=""/><path fill="none" stroke="rgb(0,0,0)" class="dcg-svg-major-gridline" paint-order="fill stroke markers" d=" M 0 47.5 L 400 47.5" stroke-opacity="0.2500000000000001" stroke-miterlimit="10" stroke-dasharray=""/></g></g><g id="axis-b810d0c8"><g id="yaxis-b810d0c8"><title>Y axis</title><g><path fill="none" stroke="rgb(0,0,0)" class="dcg-svg-axis-line" paint-order="fill stroke markers" d=" M 150 0 L 150 400" stroke-opacity="0.9" stroke-miterlimit="10" stroke-width="1.5" stroke-dasharray=""/></g></g><g id="xaxis-b810d0c8"><title>X axis</title><g><path fill="none" stroke="rgb(0,0,0)" class="dcg-svg-axis-line" paint-order="fill stroke markers" d=" M 0 201 L 400 201" stroke-opacity="0.9" stroke-miterlimit="10" stroke-width="1.5" stroke-dasharray=""/></g></g><g><g class="dcg-svg-axis-value"><text fill="none" stroke="#ffffff" font-family="Arial" font-size="14px" font-style="normal" font-weight="normal" text-decoration="normal" x="141.0250734901246" y="216.35693260763304" text-anchor="middle" stroke-miterlimit="2" stroke-width="3" stroke-dasharray="">0</text><text fill="#000000" stroke="none" font-family="Arial" font-size="14px" font-style="normal" font-weight="normal" text-decoration="normal" x="141.0250734901246" y="216.35693260763304" text-anchor="middle">0</text></g><g class="dcg-svg-axis-value"><text fill="none" stroke="#ffffff" font-family="Arial" font-size="14px" font-style="normal" font-weight="normal" text-decoration="normal" x="302.7812076574379" y="216.35693260763304" text-anchor="middle" stroke-miterlimit="2" stroke-width="3" stroke-dasharray="">5</text><text fill="#000000" stroke="none" font-family="Arial" font-size="14px" font-style="normal" font-weight="normal" text-decoration="normal" x="302.7812076574379" y="216.35693260763304" text-anchor="middle">5</text></g><g class="dcg-svg-axis-value"><text fill="none" stroke="#ffffff" font-family="Arial" font-size="14px" font-style="normal" font-weight="normal" text-decoration="normal" x="138.6940188026246" y="357.22000036869593" text-anchor="middle" stroke-miterlimit="2" stroke-width="3" stroke-dasharray="">-5</text><text fill="#000000" stroke="none" font-family="Arial" font-size="14px" font-style="normal" font-weight="normal" text-decoration="normal" x="138.6940188026246" y="357.22000036869593" text-anchor="middle">-5</text></g><g class="dcg-svg-axis-value"><text fill="none" stroke="#ffffff" font-family="Arial" font-size="14px" font-style="normal" font-weight="normal" text-decoration="normal" x="141.0250734901246" y="51.493864846570155" text-anchor="middle" stroke-miterlimit="2" stroke-width="3" stroke-dasharray="">5</text><text fill="#000000" stroke="none" font-family="Arial" font-size="14px" font-style="normal" font-weight="normal" text-decoration="normal" x="141.0250734901246" y="51.493864846570155" text-anchor="middle">5</text></g></g></g></g><g id="expressions-b810d0c8"><g id="sketch-b810d0c8"><title>Expression 1</title><path fill="#c74440" stroke="none" paint-order="stroke fill markers" d="" fill-opacity="0.4"/><g><path fill="none" stroke="#c74440" class="dcg-svg-curve" paint-order="fill stroke markers" d=" M 185.50442767900267 -5.5 L 185.50442767900267 -5.5 L 185.85337008697758 21.021191556310384 L 186.63457074329503 64.80787612741753 L 187.41577139961248 97.30909986254797 L 188.19697205592993 121.58398750153238 L 188.97817271224739 139.82312185434648 L 189.75937336856484 153.60590578348632 L 190.5405740248823 164.07858430969054 L 191.32177468119977 172.07830286918195 L 192.1029753375172 178.22017801961195 L 192.88417599383467 182.9588283017748 L 193.7630267321918 187.02973936027527 L 194.64187747054893 190.1040877153854 L 195.52072820890606 192.4386915699257 L 196.4972290293029 194.39129279465539 L 197.5713799317394 195.97072457488275 L 198.84083099825526 197.29609207607714 L 200.11028206477113 198.2174474120353 L 201.57503329536635 198.94483986996798 L 203.33273477208064 199.51064429195458 L 205.57868665899332 199.94110547109244 L 208.70348928426313 200.25012006519825 L 213.6836434682869 200.44511240970837 L 224.13220224653287 200.5344922978729 L 281.7457506499452 200.5489243697766 L 400 200.54893260563398" stroke-linecap="round" stroke-linejoin="round" stroke-miterlimit="10" stroke-width="2.5" stroke-dasharray=""/></g></g><g id="sketch-b810d0c8"><title>Expression 2</title><path fill="#348543" stroke="none" paint-order="stroke fill markers" d="" fill-opacity="0.4"/><g><path fill="none" stroke="#348543" class="dcg-svg-curve" paint-order="fill stroke markers" d=" M 186.62664689846466 405.5 L 186.62664689846466 405.5 L 187.12282115349342 386.1962415613327 L 188.09932197389026 355.40427267428083 L 189.07582279428706 330.3125308536552 L 190.05232361468387 309.7610267791254 L 191.12647451712039 291.326038211332 L 192.2006254195569 276.3627235854384 L 193.2747763219934 264.15267899751245 L 194.3489272244299 254.13892697932346 L 195.4230781268664 245.88690265337866 L 196.4972290293029 239.05550256274225 L 197.66903001377906 232.90840814118422 L 198.84083099825526 227.85753076828698 L 200.01263198273145 223.68779121310249 L 201.28208304924732 219.9695610317341 L 202.55153411576316 216.91868580542078 L 203.9186352643187 214.22897895948168 L 205.38338649491396 211.89185963282554 L 207.04343788958855 209.77618554087286 L 208.8011393663028 208.0124285844836 L 210.65649092505677 206.55556142311883 L 212.7071426478901 205.30980649642322 L 214.9530945348028 204.2715112715126 L 217.4919966678345 203.3961513041194 L 220.51914921106464 202.6439875029094 L 224.13220224653287 202.02623139747365 L 228.72175610239793 201.5195515105039 L 234.8737112708979 201.1224263978146 L 243.75986873650896 200.83475731949304 L 258.5050311245009 200.6518360675603 L 291.31545868983403 200.5651426277943 L 400 200.54923203841108" stroke-linecap="round" stroke-linejoin="round" stroke-miterlimit="10" stroke-width="2.5" stroke-dasharray=""/></g></g><g id="sketch-b810d0c8"><title>Expression 3</title><path fill="#2d70b3" stroke="none" paint-order="stroke fill markers" d="" fill-opacity="0.4"/><g><path fill="none" stroke="#2d70b3" class="dcg-svg-curve" paint-order="fill stroke markers" d=" M 182.32196395558566 -5.5 L 182.32196395558566 -5.5 L 182.63091737966806 48.54441467392945 L 183.21681787190616 120.64132418134815 L 183.80271836414425 172.3412662930052 L 184.38861885638232 208.93934141145738 L 184.97451934862042 234.36481488269578 L 185.56041984085851 251.5400825228256 L 186.04867025105693 261.1392279215696 L 186.53692066125532 267.49104584741167 L 187.02517107145374 271.3481601521984 L 187.41577139961248 273.0386986392915 L 187.70872164573152 273.6554998834124 L 188.00167189185058 273.8108601900197 L 188.2946221379696 273.57892535320997 L 188.68522246612832 272.77652066863203 L 189.17347287632674 271.1563599876 L 189.85702345060452 268.08198417012426 L 191.0288244350807 261.6223795993458 L 194.3489272244299 242.7625217702824 L 195.81367845502513 235.79146514374213 L 197.18077960358067 230.2270098907385 L 198.54788075213622 225.51312481459965 L 199.91498190069177 221.55330650017405 L 201.28208304924732 218.24237731462526 L 202.74683427984252 215.30137455705884 L 204.30923559247745 212.73551312706874 L 205.96928698715203 210.53246039584758 L 207.72698846386632 208.66749744641933 L 209.58234002262026 207.1082804987405 L 211.5353416634139 205.81881452797404 L 213.6836434682869 204.71848951663713 L 216.12489551927897 203.77038176419438 L 218.95674789842974 202.96232226362335 L 222.2768506877789 202.29260999484887 L 226.37815413344555 201.73816510961677 L 231.74890864562806 201.29039093462703 L 239.1703148806439 200.95363401975686 L 250.59537447928668 200.7233826900156 L 272.0783925280167 200.59402973203333 L 339.26164897131787 200.55103204746072 L 400 200.549232036412" stroke-linecap="round" stroke-linejoin="round" stroke-miterlimit="10" stroke-width="2.5" stroke-dasharray=""/></g></g></g><g id="labels-b810d0c8"/><g id="labels-b810d0c8"/></g></svg>