<?xml version="1.0" encoding="UTF-8" standalone="no"?>
<svg
   width="703.90649"
   zoomAndPan="magnify"
   viewBox="0 0 527.92987 173.6211"
   height="231.4948"
   preserveAspectRatio="xMidYMid"
   version="1.0"
   id="svg64"
   sodipodi:docname="LiSPM logo white.svg"
   inkscape:version="1.4.4 (1:1.4.4+202605061435+dcaf3e7d9e)"
   xmlns:inkscape="http://www.inkscape.org/namespaces/inkscape"
   xmlns:sodipodi="http://sodipodi.sourceforge.net/DTD/sodipodi-0.dtd"
   xmlns="http://www.w3.org/2000/svg"
   xmlns:svg="http://www.w3.org/2000/svg">
  <sodipodi:namedview
     id="namedview64"
     pagecolor="#7f7f7f"
     bordercolor="#000000"
     borderopacity="0.25"
     inkscape:showpageshadow="2"
     inkscape:pageopacity="0.0"
     inkscape:pagecheckerboard="0"
     inkscape:deskcolor="#d1d1d1"
     inkscape:zoom="0.36091909"
     inkscape:cx="85.891827"
     inkscape:cy="231.35379"
     inkscape:window-width="1366"
     inkscape:window-height="731"
     inkscape:window-x="0"
     inkscape:window-y="0"
     inkscape:window-maximized="1"
     inkscape:current-layer="g63" />
  <defs
     id="defs9">
    <g
       id="g1" />
    <clipPath
       id="4dad05ed94">
      <path
         d="m 65,266 h 75 v 73.98828 H 65 Z m 0,0"
         clip-rule="nonzero"
         id="path1" />
    </clipPath>
    <clipPath
       id="24a371cb78">
      <path
         d="m 129,7.066406 h 75 V 82 h -75 z m 0,0"
         clip-rule="nonzero"
         id="path2" />
    </clipPath>
    <clipPath
       id="516d879f4a">
      <path
         d="m 727,221 h 40 v 39.49219 h -40 z m 0,0"
         clip-rule="nonzero"
         id="path3" />
    </clipPath>
    <clipPath
       id="941a08b52e">
      <path
         d="m 761,86.71875 h 39 V 126 h -39 z m 0,0"
         clip-rule="nonzero"
         id="path4" />
    </clipPath>
    <clipPath
       id="5cfa4e8ba2">
      <path
         d="m 833,74 h 439.3984 V 273 H 833 Z m 0,0"
         clip-rule="nonzero"
         id="path5" />
    </clipPath>
    <clipPath
       id="2a9fab00c5">
      <rect
         x="0"
         width="440"
         y="0"
         height="199"
         id="rect5" />
    </clipPath>
    <clipPath
       id="6fa543cd1a">
      <path
         d="m 429,188 h 55 v 54.63281 h -55 z m 0,0"
         clip-rule="nonzero"
         id="path6" />
    </clipPath>
    <clipPath
       id="d6747989dc">
      <path
         d="m 476,0.847656 h 54 V 55 h -54 z m 0,0"
         clip-rule="nonzero"
         id="path7" />
    </clipPath>
    <clipPath
       id="a23c186e3b">
      <path
         d="m 348,255 h 217 v 97.92187 H 348 Z m 0,0"
         clip-rule="nonzero"
         id="path8" />
    </clipPath>
    <clipPath
       id="5de82d027a">
      <rect
         x="0"
         width="217"
         y="0"
         height="98"
         id="rect8" />
    </clipPath>
    <clipPath
       id="7063bf1629">
      <rect
         x="0"
         width="1273"
         y="0"
         height="353"
         id="rect9" />
    </clipPath>
  </defs>
  <g
     transform="translate(-694.32812,-86.71875)"
     id="g64">
    <g
       clip-path="url(#7063bf1629)"
       id="g63">
      <path
         fill="#ff0000"
         d="m 732.91016,144.59375 c 0,0.63281 -0.0312,1.26172 -0.0937,1.89062 -0.0625,0.62891 -0.15625,1.25391 -0.27735,1.8711 -0.125,0.62109 -0.27734,1.23437 -0.46094,1.83594 -0.18359,0.60546 -0.39453,1.19921 -0.63671,1.78515 -0.24219,0.58203 -0.51172,1.15235 -0.8086,1.71094 -0.30078,0.55859 -0.625,1.09766 -0.97656,1.625 -0.34766,0.52344 -0.72656,1.03125 -1.125,1.51953 -0.40234,0.48828 -0.82422,0.95703 -1.27344,1.40234 -0.44531,0.44532 -0.91406,0.8711 -1.40234,1.26954 -0.48828,0.40234 -0.9961,0.77734 -1.51953,1.1289 -0.52735,0.35156 -1.06641,0.67578 -1.625,0.97266 -0.55469,0.30078 -1.125,0.57031 -1.71094,0.80859 -0.58203,0.24219 -1.17578,0.45703 -1.78125,0.64063 -0.60547,0.18359 -1.21875,0.33593 -1.83594,0.45703 -0.62109,0.125 -1.24609,0.21875 -1.875,0.28125 -0.6289,0.0586 -1.25781,0.0898 -1.89062,0.0898 -0.62891,0 -1.26172,-0.0312 -1.89063,-0.0898 -0.6289,-0.0625 -1.2539,-0.15625 -1.87109,-0.28125 -0.6211,-0.1211 -1.23438,-0.27344 -1.83594,-0.45703 -0.60547,-0.1836 -1.19922,-0.39844 -1.78516,-0.64063 -0.58203,-0.23828 -1.15234,-0.51172 -1.71093,-0.80859 -0.55469,-0.29688 -1.09766,-0.6211 -1.6211,-0.97266 -0.52734,-0.35156 -1.03515,-0.72656 -1.52343,-1.1289 -0.48829,-0.39844 -0.95313,-0.82422 -1.40235,-1.26954 -0.44531,-0.44531 -0.87109,-0.91406 -1.26953,-1.40234 -0.40234,-0.48828 -0.77734,-0.99609 -1.12891,-1.51953 -0.35156,-0.52734 -0.67578,-1.06641 -0.97265,-1.625 -0.29688,-0.55859 -0.56641,-1.12891 -0.8086,-1.71094 -0.24218,-0.58594 -0.45703,-1.17969 -0.64062,-1.78515 -0.18359,-0.60157 -0.33594,-1.21485 -0.45703,-1.83594 -0.125,-0.61719 -0.21875,-1.24219 -0.27735,-1.8711 -0.0625,-0.6289 -0.0937,-1.25781 -0.0937,-1.89062 0,-0.63281 0.0312,-1.26172 0.0937,-1.89063 0.0586,-0.6289 0.15235,-1.2539 0.27735,-1.875 0.12109,-0.61718 0.27344,-1.23046 0.45703,-1.83593 0.18359,-0.60157 0.39844,-1.19922 0.64062,-1.78125 0.24219,-0.58203 0.51172,-1.15235 0.8086,-1.71094 0.29687,-0.55859 0.62109,-1.09766 0.97265,-1.625 0.35157,-0.52344 0.72657,-1.03125 1.12891,-1.51953 0.39844,-0.48828 0.82422,-0.95703 1.26953,-1.40235 0.44922,-0.44531 0.91406,-0.87109 1.40235,-1.27343 0.48828,-0.39844 0.99609,-0.77344 1.52343,-1.125 0.52344,-0.35157 1.06641,-0.67578 1.6211,-0.97266 0.55859,-0.30078 1.1289,-0.57031 1.71093,-0.8125 0.58594,-0.24219 1.17969,-0.45312 1.78516,-0.63672 0.60156,-0.18359 1.21484,-0.33593 1.83594,-0.46093 0.61719,-0.1211 1.24219,-0.21485 1.87109,-0.27735 0.62891,-0.0625 1.26172,-0.0937 1.89063,-0.0937 0.63281,0 1.26172,0.0312 1.89062,0.0937 0.62891,0.0625 1.25391,0.15625 1.875,0.27735 0.61719,0.125 1.23047,0.27734 1.83594,0.46093 0.60547,0.1836 1.19922,0.39453 1.78125,0.63672 0.58594,0.24219 1.15625,0.51172 1.71094,0.8125 0.55859,0.29688 1.09765,0.62109 1.625,0.97266 0.52343,0.35156 1.03125,0.72656 1.51953,1.125 0.48828,0.40234 0.95703,0.82812 1.40234,1.27343 0.44922,0.44532 0.8711,0.91407 1.27344,1.40235 0.39844,0.48828 0.77734,0.99609 1.125,1.51953 0.35156,0.52734 0.67578,1.06641 0.97656,1.625 0.29688,0.55859 0.56641,1.12891 0.8086,1.71094 0.24218,0.58203 0.45312,1.17968 0.63671,1.78125 0.1836,0.60547 0.33594,1.21875 0.46094,1.83593 0.1211,0.6211 0.21485,1.2461 0.27735,1.875 0.0625,0.62891 0.0937,1.25782 0.0937,1.89063 z m 0,0"
         fill-opacity="1"
         fill-rule="nonzero"
         id="path16"
         style="fill:#ffffff" />
      <path
         fill="#ff0000"
         d="m 732.91016,183.17578 c 0,0.63281 -0.0312,1.26172 -0.0937,1.89063 -0.0625,0.6289 -0.15625,1.2539 -0.27735,1.87109 -0.125,0.62109 -0.27734,1.23437 -0.46094,1.83984 -0.18359,0.60157 -0.39453,1.19922 -0.63671,1.78125 -0.24219,0.58203 -0.51172,1.15235 -0.8086,1.71094 -0.30078,0.55859 -0.625,1.09766 -0.97656,1.625 -0.34766,0.52344 -0.72656,1.03125 -1.125,1.51953 -0.40234,0.48828 -0.82422,0.95703 -1.27344,1.40235 -0.44531,0.44531 -0.91406,0.87109 -1.40234,1.27343 -0.48828,0.39844 -0.9961,0.77344 -1.51953,1.125 -0.52735,0.35157 -1.06641,0.67578 -1.625,0.97266 -0.55469,0.30078 -1.125,0.57031 -1.71094,0.8125 -0.58203,0.24219 -1.17578,0.45312 -1.78125,0.63672 -0.60547,0.18359 -1.21875,0.33594 -1.83594,0.46094 -0.62109,0.12109 -1.24609,0.21484 -1.875,0.27734 -0.6289,0.0625 -1.25781,0.0937 -1.89062,0.0937 -0.62891,0 -1.26172,-0.0312 -1.89063,-0.0937 -0.6289,-0.0625 -1.2539,-0.15625 -1.87109,-0.27734 -0.6211,-0.125 -1.23438,-0.27735 -1.83594,-0.46094 -0.60547,-0.1836 -1.19922,-0.39453 -1.78516,-0.63672 -0.58203,-0.24219 -1.15234,-0.51172 -1.71093,-0.8125 -0.55469,-0.29688 -1.09766,-0.62109 -1.6211,-0.97266 -0.52734,-0.35156 -1.03515,-0.72656 -1.52343,-1.125 -0.48829,-0.40234 -0.95313,-0.82812 -1.40235,-1.27343 -0.44531,-0.44532 -0.87109,-0.91407 -1.26953,-1.40235 -0.40234,-0.48828 -0.77734,-0.99609 -1.12891,-1.51953 -0.35156,-0.52734 -0.67578,-1.06641 -0.97265,-1.625 -0.29688,-0.55859 -0.56641,-1.12891 -0.8086,-1.71094 -0.24218,-0.58203 -0.45703,-1.17968 -0.64062,-1.78125 -0.18359,-0.60547 -0.33594,-1.21875 -0.45703,-1.83984 -0.125,-0.61719 -0.21875,-1.24219 -0.27735,-1.87109 -0.0625,-0.62891 -0.0937,-1.25782 -0.0937,-1.89063 0,-0.63281 0.0312,-1.26172 0.0937,-1.89062 0.0586,-0.62891 0.15235,-1.25391 0.27735,-1.8711 0.12109,-0.62109 0.27344,-1.23437 0.45703,-1.83984 0.18359,-0.60156 0.39844,-1.19531 0.64062,-1.78125 0.24219,-0.58203 0.51172,-1.15235 0.8086,-1.71094 0.29687,-0.55859 0.62109,-1.09766 0.97265,-1.625 0.35157,-0.52344 0.72657,-1.03125 1.12891,-1.51953 0.39844,-0.48828 0.82422,-0.95703 1.26953,-1.40234 0.44922,-0.44532 0.91406,-0.8711 1.40235,-1.26954 0.48828,-0.40234 0.99609,-0.77734 1.52343,-1.1289 0.52344,-0.35156 1.06641,-0.67578 1.6211,-0.97266 0.55859,-0.30078 1.1289,-0.57031 1.71093,-0.8125 0.58594,-0.23828 1.17969,-0.45312 1.78516,-0.63672 0.60156,-0.18359 1.21484,-0.33593 1.83594,-0.46093 0.61719,-0.1211 1.24219,-0.21485 1.87109,-0.27735 0.62891,-0.0586 1.26172,-0.0898 1.89063,-0.0898 0.63281,0 1.26172,0.0312 1.89062,0.0898 0.62891,0.0625 1.25391,0.15625 1.875,0.27735 0.61719,0.125 1.23047,0.27734 1.83594,0.46093 0.60547,0.1836 1.19922,0.39844 1.78125,0.63672 0.58594,0.24219 1.15625,0.51172 1.71094,0.8125 0.55859,0.29688 1.09765,0.6211 1.625,0.97266 0.52343,0.35156 1.03125,0.72656 1.51953,1.1289 0.48828,0.39844 0.95703,0.82422 1.40234,1.26954 0.44922,0.44531 0.8711,0.91406 1.27344,1.40234 0.39844,0.48828 0.77734,0.99609 1.125,1.51953 0.35156,0.52734 0.67578,1.06641 0.97656,1.625 0.29688,0.55859 0.56641,1.12891 0.8086,1.71094 0.24218,0.58594 0.45312,1.17969 0.63671,1.78125 0.1836,0.60547 0.33594,1.21875 0.46094,1.83984 0.1211,0.61719 0.21485,1.24219 0.27735,1.8711 0.0625,0.6289 0.0937,1.25781 0.0937,1.89062 z m 0,0"
         fill-opacity="1"
         fill-rule="nonzero"
         id="path17"
         style="fill:#ffffff" />
      <path
         fill="#ff0000"
         d="m 732.91016,221.75781 c 0,0.63281 -0.0312,1.26172 -0.0937,1.89063 -0.0625,0.6289 -0.15625,1.2539 -0.27735,1.87109 -0.125,0.62109 -0.27734,1.23438 -0.46094,1.83984 -0.18359,0.60157 -0.39453,1.19532 -0.63671,1.78125 -0.24219,0.58204 -0.51172,1.15235 -0.8086,1.71094 -0.30078,0.5586 -0.625,1.09766 -0.97656,1.625 -0.34766,0.52344 -0.72656,1.03125 -1.125,1.51953 -0.40234,0.48828 -0.82422,0.95703 -1.27344,1.40235 -0.44531,0.44531 -0.91406,0.87109 -1.40234,1.27343 -0.48828,0.39844 -0.9961,0.77344 -1.51953,1.125 -0.52735,0.35157 -1.06641,0.67579 -1.625,0.97266 -0.55469,0.30078 -1.125,0.57031 -1.71094,0.8125 -0.58203,0.23828 -1.17578,0.45313 -1.78125,0.63672 -0.60547,0.18359 -1.21875,0.33594 -1.83594,0.46094 -0.62109,0.12109 -1.24609,0.21484 -1.875,0.27734 -0.6289,0.0625 -1.25781,0.0898 -1.89062,0.0898 -0.62891,0 -1.26172,-0.0273 -1.89063,-0.0898 -0.6289,-0.0625 -1.2539,-0.15625 -1.87109,-0.27734 -0.6211,-0.125 -1.23438,-0.27735 -1.83594,-0.46094 -0.60547,-0.18359 -1.19922,-0.39844 -1.78516,-0.63672 -0.58203,-0.24219 -1.15234,-0.51172 -1.71093,-0.8125 -0.55469,-0.29687 -1.09766,-0.62109 -1.6211,-0.97266 -0.52734,-0.35156 -1.03515,-0.72656 -1.52343,-1.125 -0.48829,-0.40234 -0.95313,-0.82812 -1.40235,-1.27343 -0.44531,-0.44532 -0.87109,-0.91407 -1.26953,-1.40235 -0.40234,-0.48828 -0.77734,-0.99609 -1.12891,-1.51953 -0.35156,-0.52734 -0.67578,-1.0664 -0.97265,-1.625 -0.29688,-0.55859 -0.56641,-1.1289 -0.8086,-1.71094 -0.24218,-0.58593 -0.45703,-1.17968 -0.64062,-1.78125 -0.18359,-0.60546 -0.33594,-1.21875 -0.45703,-1.83984 -0.125,-0.61719 -0.21875,-1.24219 -0.27735,-1.87109 -0.0625,-0.62891 -0.0937,-1.25782 -0.0937,-1.89063 0,-0.63281 0.0312,-1.26172 0.0937,-1.89062 0.0586,-0.62891 0.15235,-1.25391 0.27735,-1.8711 0.12109,-0.62109 0.27344,-1.23437 0.45703,-1.83984 0.18359,-0.60156 0.39844,-1.19531 0.64062,-1.78125 0.24219,-0.58203 0.51172,-1.15234 0.8086,-1.71094 0.29687,-0.55859 0.62109,-1.09765 0.97265,-1.625 0.35157,-0.52344 0.72657,-1.03125 1.12891,-1.51953 0.39844,-0.48828 0.82422,-0.95703 1.26953,-1.40234 0.44922,-0.44532 0.91406,-0.8711 1.40235,-1.26953 0.48828,-0.40235 0.99609,-0.77735 1.52343,-1.12891 0.52344,-0.35156 1.06641,-0.67578 1.6211,-0.97266 0.55859,-0.30078 1.1289,-0.57031 1.71093,-0.8125 0.58594,-0.23828 1.17969,-0.45312 1.78516,-0.63672 0.60156,-0.18359 1.21484,-0.33593 1.83594,-0.46093 0.61719,-0.1211 1.24219,-0.21485 1.87109,-0.27735 0.62891,-0.0625 1.26172,-0.0898 1.89063,-0.0898 0.63281,0 1.26172,0.0273 1.89062,0.0898 0.62891,0.0625 1.25391,0.15625 1.875,0.27735 0.61719,0.125 1.23047,0.27734 1.83594,0.46093 0.60547,0.1836 1.19922,0.39844 1.78125,0.63672 0.58594,0.24219 1.15625,0.51172 1.71094,0.8125 0.55859,0.29688 1.09765,0.6211 1.625,0.97266 0.52343,0.35156 1.03125,0.72656 1.51953,1.12891 0.48828,0.39843 0.95703,0.82421 1.40234,1.26953 0.44922,0.44531 0.8711,0.91406 1.27344,1.40234 0.39844,0.48828 0.77734,0.99609 1.125,1.51953 0.35156,0.52735 0.67578,1.06641 0.97656,1.625 0.29688,0.5586 0.56641,1.12891 0.8086,1.71094 0.24218,0.58594 0.45312,1.17969 0.63671,1.78125 0.1836,0.60547 0.33594,1.21875 0.46094,1.83984 0.1211,0.61719 0.21485,1.24219 0.27735,1.8711 0.0625,0.6289 0.0937,1.25781 0.0937,1.89062 z m 0,0"
         fill-opacity="1"
         fill-rule="nonzero"
         id="path18"
         style="fill:#ffffff" />
      <g
         clip-path="url(#516d879f4a)"
         id="g19"
         style="fill:#ffffff">
        <path
           fill="#ff0000"
           d="m 766.32422,241.04687 c 0,0.63282 -0.0312,1.26563 -0.0937,1.89454 -0.0625,0.6289 -0.15625,1.25 -0.27735,1.87109 -0.125,0.62109 -0.27734,1.23047 -0.46093,1.83594 -0.1836,0.60547 -0.39453,1.19922 -0.63672,1.78125 -0.24219,0.58593 -0.51172,1.15625 -0.8125,1.71093 -0.29688,0.5586 -0.6211,1.10157 -0.97266,1.625 -0.35156,0.52735 -0.72656,1.03125 -1.125,1.51954 -0.40234,0.48828 -0.82422,0.95703 -1.27344,1.40625 -0.44531,0.44531 -0.91406,0.86718 -1.40234,1.26953 -0.48828,0.40234 -0.99609,0.77734 -1.51953,1.1289 -0.52734,0.35157 -1.06641,0.67578 -1.625,0.97266 -0.55859,0.29687 -1.12891,0.56641 -1.71094,0.80859 -0.58203,0.24219 -1.17969,0.45313 -1.78125,0.63672 -0.60547,0.1836 -1.21875,0.33985 -1.83594,0.46094 -0.62109,0.125 -1.24609,0.21484 -1.875,0.27734 -0.6289,0.0625 -1.25781,0.0937 -1.89062,0.0937 -0.63281,0 -1.26172,-0.0312 -1.89063,-0.0937 -0.6289,-0.0625 -1.2539,-0.15234 -1.87109,-0.27734 -0.62109,-0.12109 -1.23437,-0.27734 -1.83594,-0.46094 -0.60547,-0.18359 -1.19922,-0.39453 -1.78515,-0.63672 -0.58203,-0.24218 -1.15235,-0.51172 -1.71094,-0.80859 -0.55859,-0.29688 -1.09766,-0.62109 -1.625,-0.97266 -0.52344,-0.35156 -1.03125,-0.72656 -1.51953,-1.1289 -0.48828,-0.40235 -0.95703,-0.82422 -1.40235,-1.26953 -0.44531,-0.44922 -0.87109,-0.91797 -1.26953,-1.40625 -0.40234,-0.48829 -0.77734,-0.99219 -1.1289,-1.51954 -0.35157,-0.52343 -0.67578,-1.0664 -0.97266,-1.625 -0.29687,-0.55468 -0.57031,-1.125 -0.80859,-1.71093 -0.24219,-0.58203 -0.45703,-1.17578 -0.64063,-1.78125 -0.18359,-0.60547 -0.33594,-1.21485 -0.45703,-1.83594 -0.125,-0.62109 -0.21875,-1.24219 -0.28125,-1.87109 -0.0586,-0.62891 -0.0898,-1.26172 -0.0898,-1.89454 0,-0.6289 0.0312,-1.26171 0.0898,-1.89062 0.0625,-0.62891 0.15625,-1.25 0.28125,-1.87109 0.12109,-0.6211 0.27344,-1.23047 0.45703,-1.83594 0.1836,-0.60547 0.39844,-1.19922 0.64063,-1.78125 0.23828,-0.58594 0.51172,-1.15625 0.80859,-1.71094 0.29688,-0.55859 0.62109,-1.10156 0.97266,-1.625 0.35156,-0.52734 0.72656,-1.03125 1.1289,-1.51953 0.39844,-0.48828 0.82422,-0.95703 1.26953,-1.40625 0.44532,-0.44531 0.91407,-0.86719 1.40235,-1.26953 0.48828,-0.40235 0.99609,-0.77735 1.51953,-1.12891 0.52734,-0.35156 1.06641,-0.67578 1.625,-0.97265 0.55859,-0.29688 1.12891,-0.56641 1.71094,-0.8086 0.58593,-0.24219 1.17968,-0.45312 1.78515,-0.63672 0.60157,-0.18359 1.21485,-0.33984 1.83594,-0.46093 0.61719,-0.125 1.24219,-0.21485 1.87109,-0.27735 0.62891,-0.0625 1.25782,-0.0937 1.89063,-0.0937 0.63281,0 1.26172,0.0312 1.89062,0.0937 0.62891,0.0625 1.25391,0.15235 1.875,0.27735 0.61719,0.12109 1.23047,0.27734 1.83594,0.46093 0.60156,0.1836 1.19922,0.39453 1.78125,0.63672 0.58203,0.24219 1.15235,0.51172 1.71094,0.8086 0.55859,0.29687 1.09766,0.62109 1.625,0.97265 0.52344,0.35156 1.03125,0.72656 1.51953,1.12891 0.48828,0.40234 0.95703,0.82422 1.40234,1.26953 0.44922,0.44922 0.8711,0.91797 1.27344,1.40625 0.39844,0.48828 0.77344,0.99219 1.125,1.51953 0.35156,0.52344 0.67578,1.06641 0.97266,1.625 0.30078,0.55469 0.57031,1.125 0.8125,1.71094 0.24219,0.58203 0.45312,1.17578 0.63672,1.78125 0.18359,0.60547 0.33593,1.21484 0.46093,1.83594 0.1211,0.62109 0.21485,1.24218 0.27735,1.87109 0.0625,0.62891 0.0937,1.26172 0.0937,1.89062 z m 0,0"
           fill-opacity="1"
           fill-rule="nonzero"
           id="path19"
           style="fill:#ffffff" />
      </g>
      <path
         fill="#ff0000"
         d="m 799.73437,221.75781 c 0,0.63281 -0.0312,1.26172 -0.0937,1.89063 -0.0586,0.6289 -0.15234,1.2539 -0.27734,1.87109 -0.12109,0.62109 -0.27344,1.23438 -0.45703,1.83984 -0.18359,0.60157 -0.39844,1.19532 -0.64063,1.78125 -0.24218,0.58204 -0.51171,1.15235 -0.80859,1.71094 -0.29687,0.5586 -0.62109,1.09766 -0.97266,1.625 -0.35156,0.52344 -0.72656,1.03125 -1.1289,1.51953 -0.39844,0.48828 -0.82422,0.95703 -1.26953,1.40235 -0.44922,0.44531 -0.91407,0.87109 -1.40235,1.27343 -0.48828,0.39844 -0.99609,0.77344 -1.52343,1.125 -0.52344,0.35157 -1.06641,0.67579 -1.6211,0.97266 -0.55859,0.30078 -1.1289,0.57031 -1.71094,0.8125 -0.58593,0.23828 -1.17968,0.45313 -1.78515,0.63672 -0.60156,0.18359 -1.21485,0.33594 -1.83594,0.46094 -0.61719,0.12109 -1.24219,0.21484 -1.87109,0.27734 -0.62891,0.0625 -1.25782,0.0898 -1.89063,0.0898 -0.63281,0 -1.26172,-0.0273 -1.89062,-0.0898 -0.62891,-0.0625 -1.25391,-0.15625 -1.875,-0.27734 -0.61719,-0.125 -1.23047,-0.27735 -1.83594,-0.46094 -0.60547,-0.18359 -1.19922,-0.39844 -1.78125,-0.63672 -0.58594,-0.24219 -1.15625,-0.51172 -1.71094,-0.8125 -0.55859,-0.29687 -1.09765,-0.62109 -1.625,-0.97266 -0.52344,-0.35156 -1.03125,-0.72656 -1.51953,-1.125 -0.48828,-0.40234 -0.95703,-0.82812 -1.40234,-1.27343 -0.44922,-0.44532 -0.8711,-0.91407 -1.27344,-1.40235 -0.39844,-0.48828 -0.77734,-0.99609 -1.125,-1.51953 -0.35156,-0.52734 -0.67578,-1.0664 -0.97656,-1.625 -0.29688,-0.55859 -0.56641,-1.1289 -0.8086,-1.71094 -0.24218,-0.58593 -0.45312,-1.17968 -0.63672,-1.78125 -0.18359,-0.60546 -0.33593,-1.21875 -0.46093,-1.83984 -0.1211,-0.61719 -0.21485,-1.24219 -0.27735,-1.87109 -0.0625,-0.62891 -0.0937,-1.25782 -0.0937,-1.89063 0,-0.63281 0.0312,-1.26172 0.0937,-1.89062 0.0625,-0.62891 0.15625,-1.25391 0.27735,-1.8711 0.125,-0.62109 0.27734,-1.23437 0.46093,-1.83984 0.1836,-0.60156 0.39454,-1.19531 0.63672,-1.78125 0.24219,-0.58203 0.51172,-1.15234 0.8086,-1.71094 0.30078,-0.55859 0.625,-1.09765 0.97656,-1.625 0.34766,-0.52344 0.72656,-1.03125 1.125,-1.51953 0.40234,-0.48828 0.82422,-0.95703 1.27344,-1.40234 0.44531,-0.44532 0.91406,-0.8711 1.40234,-1.26953 0.48828,-0.40235 0.99609,-0.77735 1.51953,-1.12891 0.52735,-0.35156 1.06641,-0.67578 1.625,-0.97266 0.55469,-0.30078 1.125,-0.57031 1.71094,-0.8125 0.58203,-0.23828 1.17578,-0.45312 1.78125,-0.63672 0.60547,-0.18359 1.21875,-0.33593 1.83594,-0.46093 0.62109,-0.1211 1.24609,-0.21485 1.875,-0.27735 0.6289,-0.0625 1.25781,-0.0898 1.89062,-0.0898 0.63281,0 1.26172,0.0273 1.89063,0.0898 0.6289,0.0625 1.2539,0.15625 1.87109,0.27735 0.62109,0.125 1.23438,0.27734 1.83594,0.46093 0.60547,0.1836 1.19922,0.39844 1.78515,0.63672 0.58204,0.24219 1.15235,0.51172 1.71094,0.8125 0.55469,0.29688 1.09766,0.6211 1.6211,0.97266 0.52734,0.35156 1.03515,0.72656 1.52343,1.12891 0.48828,0.39843 0.95313,0.82421 1.40235,1.26953 0.44531,0.44531 0.87109,0.91406 1.26953,1.40234 0.40234,0.48828 0.77734,0.99609 1.1289,1.51953 0.35157,0.52735 0.67579,1.06641 0.97266,1.625 0.29688,0.5586 0.56641,1.12891 0.80859,1.71094 0.24219,0.58594 0.45704,1.17969 0.64063,1.78125 0.18359,0.60547 0.33594,1.21875 0.45703,1.83984 0.125,0.61719 0.21875,1.24219 0.27734,1.8711 0.0625,0.6289 0.0937,1.25781 0.0937,1.89062 z m 0,0"
         fill-opacity="1"
         fill-rule="nonzero"
         id="path20"
         style="fill:#ffffff" />
      <path
         fill="#ff0000"
         d="m 799.73437,183.17578 c 0,0.63281 -0.0312,1.26172 -0.0937,1.89063 -0.0586,0.6289 -0.15234,1.2539 -0.27734,1.87109 -0.12109,0.62109 -0.27344,1.23437 -0.45703,1.83984 -0.18359,0.60157 -0.39844,1.19922 -0.64063,1.78125 -0.24218,0.58203 -0.51171,1.15235 -0.80859,1.71094 -0.29687,0.55859 -0.62109,1.09766 -0.97266,1.625 -0.35156,0.52344 -0.72656,1.03125 -1.1289,1.51953 -0.39844,0.48828 -0.82422,0.95703 -1.26953,1.40235 -0.44922,0.44531 -0.91407,0.87109 -1.40235,1.27343 -0.48828,0.39844 -0.99609,0.77344 -1.52343,1.125 -0.52344,0.35157 -1.06641,0.67578 -1.6211,0.97266 -0.55859,0.30078 -1.1289,0.57031 -1.71094,0.8125 -0.58593,0.24219 -1.17968,0.45312 -1.78515,0.63672 -0.60156,0.18359 -1.21485,0.33594 -1.83594,0.46094 -0.61719,0.12109 -1.24219,0.21484 -1.87109,0.27734 -0.62891,0.0625 -1.25782,0.0937 -1.89063,0.0937 -0.63281,0 -1.26172,-0.0312 -1.89062,-0.0937 -0.62891,-0.0625 -1.25391,-0.15625 -1.875,-0.27734 -0.61719,-0.125 -1.23047,-0.27735 -1.83594,-0.46094 -0.60547,-0.1836 -1.19922,-0.39453 -1.78125,-0.63672 -0.58594,-0.24219 -1.15625,-0.51172 -1.71094,-0.8125 -0.55859,-0.29688 -1.09765,-0.62109 -1.625,-0.97266 -0.52344,-0.35156 -1.03125,-0.72656 -1.51953,-1.125 -0.48828,-0.40234 -0.95703,-0.82812 -1.40234,-1.27343 -0.44922,-0.44532 -0.8711,-0.91407 -1.27344,-1.40235 -0.39844,-0.48828 -0.77734,-0.99609 -1.125,-1.51953 -0.35156,-0.52734 -0.67578,-1.06641 -0.97656,-1.625 -0.29688,-0.55859 -0.56641,-1.12891 -0.8086,-1.71094 -0.24218,-0.58203 -0.45312,-1.17968 -0.63672,-1.78125 -0.18359,-0.60547 -0.33593,-1.21875 -0.46093,-1.83984 -0.1211,-0.61719 -0.21485,-1.24219 -0.27735,-1.87109 -0.0625,-0.62891 -0.0937,-1.25782 -0.0937,-1.89063 0,-0.63281 0.0312,-1.26172 0.0937,-1.89062 0.0625,-0.62891 0.15625,-1.25391 0.27735,-1.8711 0.125,-0.62109 0.27734,-1.23437 0.46093,-1.83984 0.1836,-0.60156 0.39454,-1.19531 0.63672,-1.78125 0.24219,-0.58203 0.51172,-1.15235 0.8086,-1.71094 0.30078,-0.55859 0.625,-1.09766 0.97656,-1.625 0.34766,-0.52344 0.72656,-1.03125 1.125,-1.51953 0.40234,-0.48828 0.82422,-0.95703 1.27344,-1.40234 0.44531,-0.44532 0.91406,-0.8711 1.40234,-1.26954 0.48828,-0.40234 0.99609,-0.77734 1.51953,-1.1289 0.52735,-0.35156 1.06641,-0.67578 1.625,-0.97266 0.55469,-0.30078 1.125,-0.57031 1.71094,-0.8125 0.58203,-0.23828 1.17578,-0.45312 1.78125,-0.63672 0.60547,-0.18359 1.21875,-0.33593 1.83594,-0.46093 0.62109,-0.1211 1.24609,-0.21485 1.875,-0.27735 0.6289,-0.0586 1.25781,-0.0898 1.89062,-0.0898 0.63281,0 1.26172,0.0312 1.89063,0.0898 0.6289,0.0625 1.2539,0.15625 1.87109,0.27735 0.62109,0.125 1.23438,0.27734 1.83594,0.46093 0.60547,0.1836 1.19922,0.39844 1.78515,0.63672 0.58204,0.24219 1.15235,0.51172 1.71094,0.8125 0.55469,0.29688 1.09766,0.6211 1.6211,0.97266 0.52734,0.35156 1.03515,0.72656 1.52343,1.1289 0.48828,0.39844 0.95313,0.82422 1.40235,1.26954 0.44531,0.44531 0.87109,0.91406 1.26953,1.40234 0.40234,0.48828 0.77734,0.99609 1.1289,1.51953 0.35157,0.52734 0.67579,1.06641 0.97266,1.625 0.29688,0.55859 0.56641,1.12891 0.80859,1.71094 0.24219,0.58594 0.45704,1.17969 0.64063,1.78125 0.18359,0.60547 0.33594,1.21875 0.45703,1.83984 0.125,0.61719 0.21875,1.24219 0.27734,1.8711 0.0625,0.6289 0.0937,1.25781 0.0937,1.89062 z m 0,0"
         fill-opacity="1"
         fill-rule="nonzero"
         id="path21"
         style="fill:#ffffff" />
      <g
         clip-path="url(#941a08b52e)"
         id="g22"
         style="fill:#ffffff">
        <path
           fill="#ff0000"
           d="m 799.73437,106.01172 c 0,0.63281 -0.0312,1.26172 -0.0937,1.89062 -0.0586,0.62891 -0.15234,1.25391 -0.27734,1.8711 -0.12109,0.62109 -0.27344,1.23437 -0.45703,1.83984 -0.18359,0.60156 -0.39844,1.19531 -0.64063,1.78125 -0.24218,0.58203 -0.51171,1.15235 -0.80859,1.71094 -0.29687,0.55859 -0.62109,1.09766 -0.97266,1.625 -0.35156,0.52344 -0.72656,1.03125 -1.1289,1.51953 -0.39844,0.48828 -0.82422,0.95703 -1.26953,1.40234 -0.44922,0.44532 -0.91407,0.8711 -1.40235,1.26954 -0.48828,0.40234 -0.99609,0.77734 -1.52343,1.1289 -0.52344,0.35156 -1.06641,0.67578 -1.6211,0.97266 -0.55859,0.30078 -1.1289,0.57031 -1.71094,0.8125 -0.58593,0.23828 -1.17968,0.45312 -1.78515,0.63672 -0.60156,0.18359 -1.21485,0.33593 -1.83594,0.46093 -0.61719,0.1211 -1.24219,0.21485 -1.87109,0.27735 -0.62891,0.0586 -1.25782,0.0898 -1.89063,0.0898 -0.63281,0 -1.26172,-0.0312 -1.89062,-0.0898 -0.62891,-0.0625 -1.25391,-0.15625 -1.875,-0.27735 -0.61719,-0.125 -1.23047,-0.27734 -1.83594,-0.46093 -0.60547,-0.1836 -1.19922,-0.39844 -1.78125,-0.63672 -0.58594,-0.24219 -1.15625,-0.51172 -1.71094,-0.8125 -0.55859,-0.29688 -1.09765,-0.6211 -1.625,-0.97266 -0.52344,-0.35156 -1.03125,-0.72656 -1.51953,-1.1289 -0.48828,-0.39844 -0.95703,-0.82422 -1.40234,-1.26954 -0.44922,-0.44531 -0.8711,-0.91406 -1.27344,-1.40234 -0.39844,-0.48828 -0.77734,-0.99609 -1.125,-1.51953 -0.35156,-0.52734 -0.67578,-1.06641 -0.97656,-1.625 -0.29688,-0.55859 -0.56641,-1.12891 -0.8086,-1.71094 -0.24218,-0.58594 -0.45312,-1.17969 -0.63672,-1.78125 -0.18359,-0.60547 -0.33593,-1.21875 -0.46093,-1.83984 -0.1211,-0.61719 -0.21485,-1.24219 -0.27735,-1.8711 -0.0625,-0.6289 -0.0937,-1.25781 -0.0937,-1.89062 0,-0.63281 0.0312,-1.26172 0.0937,-1.89063 0.0625,-0.6289 0.15625,-1.2539 0.27735,-1.875 0.125,-0.61718 0.27734,-1.23046 0.46093,-1.83593 0.1836,-0.601566 0.39454,-1.199222 0.63672,-1.781254 0.24219,-0.582031 0.51172,-1.152344 0.8086,-1.710937 0.30078,-0.558594 0.625,-1.097657 0.97656,-1.625 0.34766,-0.523438 0.72656,-1.03125 1.125,-1.519531 0.40234,-0.488282 0.82422,-0.957032 1.27344,-1.402344 0.44531,-0.445313 0.91406,-0.871094 1.40234,-1.273438 0.48828,-0.398437 0.99609,-0.773437 1.51953,-1.125 0.52735,-0.351562 1.06641,-0.675781 1.625,-0.972656 0.55469,-0.300781 1.125,-0.570312 1.71094,-0.8125 0.58203,-0.242188 1.17578,-0.453125 1.78125,-0.636719 0.60547,-0.183593 1.21875,-0.335937 1.83594,-0.460937 0.62109,-0.121094 1.24609,-0.214844 1.875,-0.277344 0.6289,-0.0625 1.25781,-0.09375 1.89062,-0.09375 0.63281,0 1.26172,0.03125 1.89063,0.09375 0.6289,0.0625 1.2539,0.15625 1.87109,0.277344 0.62109,0.125 1.23438,0.277344 1.83594,0.460937 0.60547,0.183594 1.19922,0.394531 1.78515,0.636719 0.58204,0.242188 1.15235,0.511719 1.71094,0.8125 0.55469,0.296875 1.09766,0.621094 1.6211,0.972656 0.52734,0.351563 1.03515,0.726563 1.52343,1.125 0.48828,0.402344 0.95313,0.828125 1.40235,1.273438 0.44531,0.445312 0.87109,0.914062 1.26953,1.402344 0.40234,0.488281 0.77734,0.996093 1.1289,1.519531 0.35157,0.527343 0.67579,1.066406 0.97266,1.625 0.29688,0.558593 0.56641,1.128906 0.80859,1.710937 0.24219,0.582032 0.45704,1.179688 0.64063,1.781254 0.18359,0.60547 0.33594,1.21875 0.45703,1.83593 0.125,0.6211 0.21875,1.2461 0.27734,1.875 0.0625,0.62891 0.0937,1.25782 0.0937,1.89063 z m 0,0"
           fill-opacity="1"
           fill-rule="nonzero"
           id="path22"
           style="fill:#ffffff" />
      </g>
      <g
         clip-path="url(#5cfa4e8ba2)"
         id="g39"
         transform="matrix(0.9353911,0,0,0.9353911,45.746072,11.322785)"
         style="fill:#ffffff">
        <g
           transform="translate(833,74)"
           id="g38"
           style="fill:#ffffff">
          <g
             clip-path="url(#2a9fab00c5)"
             id="g37"
             style="fill:#ffffff">
            <g
               fill="#000000"
               fill-opacity="1"
               id="g27"
               style="fill:#ffffff">
              <g
                 transform="translate(0.84238,155.40741)"
                 id="g24"
                 style="fill:#ffffff">
                <g
                   id="g23"
                   style="fill:#ffffff">
                  <path
                     d="m 30.828125,-103.35938 v 89.781255 H 78.96875 V 0 H 14.5625 v -103.35938 z m 0,0"
                     id="path23"
                     style="fill:#ffffff" />
                </g>
              </g>
              <g
                 transform="translate(83.70597,155.40741)"
                 id="g26"
                 style="fill:#ffffff">
                <g
                   id="g25"
                   style="fill:#ffffff">
                  <path
                     d="m 20.21875,-90.21875 c -2.96875,0 -5.398438,-0.914062 -7.28125,-2.75 -1.886719,-1.84375 -2.828125,-4.203125 -2.828125,-7.07813 0,-2.82031 0.941406,-5.14843 2.828125,-6.98437 1.882812,-1.84375 4.3125,-2.76563 7.28125,-2.76563 2.96875,0 5.40625,0.92188 7.3125,2.76563 1.914062,1.83594 2.875,4.16406 2.875,6.98437 0,2.875005 -0.945312,5.23438 -2.828125,7.07813 -1.886719,1.835938 -4.339844,2.75 -7.359375,2.75 z M 12.4375,0 V -77.984375 H 28 V 0 Z m 0,0"
                     id="path24"
                     style="fill:#ffffff" />
                </g>
              </g>
            </g>
            <g
               fill="#000000"
               fill-opacity="1"
               id="g30"
               style="fill:#ffffff">
              <g
                 transform="translate(124.07722,155.40741)"
                 id="g29"
                 style="fill:#ffffff">
                <g
                   id="g28"
                   style="fill:#ffffff">
                  <path
                     d="m 45.53125,1.484375 c -6.835938,0 -12.9375,-0.882813 -18.3125,-2.640625 C 21.84375,-2.925781 17.363281,-5.25 13.78125,-8.125 10.195312,-11 7.488281,-14.160156 5.65625,-17.609375 L 14.5625,-28.5 h 1.765625 c 3.15625,4.960938 7.160156,8.804688 12.015625,11.53125 4.863281,2.730469 10.59375,4.09375 17.1875,4.09375 6.601562,0 11.550781,-1.382812 14.84375,-4.15625 3.300781,-2.78125 4.953125,-6.625 4.953125,-11.53125 0,-2.925781 -0.542969,-5.390625 -1.625,-7.390625 -1.085937,-2 -2.867187,-3.71875 -5.34375,-5.15625 -2.46875,-1.4375 -5.824219,-2.675781 -10.0625,-3.71875 l -12.65625,-2.96875 c -9.148437,-2.164063 -15.921875,-5.664063 -20.328125,-10.5 -4.40625,-4.832031 -6.609375,-11.019531 -6.609375,-18.5625 0,-5.507813 1.390625,-10.375 4.171875,-14.59375 2.78125,-4.21875 6.84375,-7.503906 12.1875,-9.859375 5.351562,-2.35156 11.726562,-3.53125 19.125,-3.53125 7.875,0 14.566406,1.0625 20.078125,3.1875 5.519531,2.117188 10.046875,5.367188 13.578125,9.75 l -7.984375,10.953125 h -1.78125 c -2.96875,-3.34375 -6.414063,-5.828125 -10.328125,-7.453125 -3.90625,-1.625 -8.429688,-2.4375 -13.5625,-2.4375 -6.40625,0 -11.25,1.195312 -14.53125,3.578125 -3.273438,2.375 -4.90625,5.65625 -4.90625,9.84375 0,3.960937 1.175781,7.105469 3.53125,9.4375 2.351562,2.335937 6.382812,4.164063 12.09375,5.484375 l 13,2.90625 c 10.039062,2.261719 17.3125,5.875 21.8125,10.84375 4.5,4.96875 6.75,11.390625 6.75,19.265625 0,6.125 -1.355469,11.523437 -4.0625,16.1875 C 75.164062,-8.628906 71.085938,-5 65.640625,-2.40625 60.203125,0.183594 53.5,1.484375 45.53125,1.484375 Z m 0,0"
                     id="path27"
                     style="fill:#ffffff" />
                </g>
              </g>
            </g>
            <g
               fill="#000000"
               fill-opacity="1"
               id="g33"
               style="fill:#ffffff">
              <g
                 transform="translate(212.80914,155.40741)"
                 id="g32"
                 style="fill:#ffffff">
                <g
                   id="g31"
                   style="fill:#ffffff">
                  <path
                     d="m 53.03125,-103.35938 c 7.257812,0 13.476562,1.32032 18.65625,3.95313 5.1875,2.636719 9.109375,6.351562 11.765625,11.140625 2.664063,4.78125 4,10.402344 4,16.859375 0,6.40625 -1.335937,12.007812 -4,16.796875 -2.65625,4.78125 -6.578125,8.496094 -11.765625,11.140625 -5.179688,2.636719 -11.398438,3.953125 -18.65625,3.953125 H 30.828125 V 0 H 14.5625 v -103.35938 z m -1.5625,50.54688 c 12.863281,0 19.296875,-6.195312 19.296875,-18.59375 0,-12.488281 -6.433594,-18.734375 -19.296875,-18.734375 H 30.828125 V -52.8125 Z m 0,0"
                     id="path30"
                     style="fill:#ffffff" />
                </g>
              </g>
            </g>
            <g
               fill="#000000"
               fill-opacity="1"
               id="g36"
               style="fill:#ffffff">
              <g
                 transform="translate(307.19729,155.40741)"
                 id="g35"
                 style="fill:#ffffff">
                <g
                   id="g34"
                   style="fill:#ffffff">
                  <path
                     d="M 29.546875,0 H 14.5625 v -103.35938 h 22.34375 l 28.78125,81.718755 h 1.484375 l 28.625,-81.718755 H 117.57813 V 0 h -15.48438 v -76.359375 l -1.76562,-0.28125 L 73.109375,0 h -14.5625 l -27.21875,-76.640625 -1.78125,0.28125 z m 0,0"
                     id="path33"
                     style="fill:#ffffff" />
                </g>
              </g>
            </g>
          </g>
        </g>
      </g>
    </g>
  </g>
</svg>
