<?xml version="1.0" encoding="UTF-8" standalone="no"?>
<!-- Created with Inkscape (http://www.inkscape.org/) -->

<svg
   width="691.93488mm"
   height="238.12497mm"
   viewBox="0 0 691.93488 238.12497"
   version="1.1"
   id="svg1"
   inkscape:version="1.4.4 (1:1.4.4+202605061435+dcaf3e7d9e)"
   sodipodi:docname="logo.svg"
   xmlns:inkscape="http://www.inkscape.org/namespaces/inkscape"
   xmlns:sodipodi="http://sodipodi.sourceforge.net/DTD/sodipodi-0.dtd"
   xmlns="http://www.w3.org/2000/svg"
   xmlns:svg="http://www.w3.org/2000/svg">
  <sodipodi:namedview
     id="namedview1"
     pagecolor="#ffffff"
     bordercolor="#000000"
     borderopacity="0.25"
     inkscape:showpageshadow="2"
     inkscape:pageopacity="0.0"
     inkscape:pagecheckerboard="0"
     inkscape:deskcolor="#d1d1d1"
     inkscape:document-units="mm"
     inkscape:zoom="0.21583778"
     inkscape:cx="1876.4092"
     inkscape:cy="743.61401"
     inkscape:window-width="1366"
     inkscape:window-height="699"
     inkscape:window-x="0"
     inkscape:window-y="0"
     inkscape:window-maximized="1"
     inkscape:current-layer="layer1"
     showgrid="true">
    <inkscape:grid
       type="axonomgrid"
       id="grid1"
       units="px"
       originx="-19.368847"
       originy="26.458328"
       spacingx="0.99999998"
       spacingy="26.458333"
       empcolor="#0099e5"
       empopacity="0.30196078"
       color="#0099e5"
       opacity="0.14901961"
       empspacing="0"
       dotted="false"
       gridanglex="30"
       gridanglez="30"
       enabled="true"
       visible="true" />
  </sodipodi:namedview>
  <defs
     id="defs1">
    <rect
       x="12.124355"
       y="-4.9999995"
       width="51.961521"
       height="23.999998"
       id="rect3" />
  </defs>
  <g
     inkscape:label="Layer 1"
     inkscape:groupmode="layer"
     id="layer1"
     transform="translate(-19.368847,26.458328)">
    <path
       d="M 207.40776,159.30838 V 27.094471 h 21.70406 V 140.85993 h 56.15926 v 18.44845 z M 327.14183,59.198396 V 159.30838 H 305.88994 V 59.198396 Z M 316.65154,20.854554 q 4.88341,0 8.41032,2.622574 3.61735,2.622574 3.61735,9.043359 0,6.330351 -3.61735,9.043359 -3.52691,2.622574 -8.41032,2.622574 -5.06428,0 -8.59119,-2.622574 -3.43648,-2.713008 -3.43648,-9.043359 0,-6.420785 3.43648,-9.043359 3.52691,-2.622574 8.59119,-2.622574 z M 436.02387,123.31581 q 0,11.75637 -5.78775,20.25713 -5.69732,8.50075 -16.45891,13.02243 -10.67117,4.52168 -25.50228,4.52168 -7.23468,0 -13.83633,-0.8139 -6.60166,-0.8139 -12.47984,-2.35127 -5.78775,-1.62781 -10.58073,-3.88865 v -20.43799 q 8.04859,3.52691 17.99628,6.42079 9.9477,2.80344 20.25713,2.80344 8.41032,0 13.92677,-2.17041 5.60688,-2.26084 8.31989,-6.33035 2.71301,-4.15995 2.71301,-9.67639 0,-5.87819 -3.16518,-9.9477 -3.16517,-4.06951 -9.58596,-7.41555 -6.33035,-3.43648 -15.91631,-7.325125 -6.51122,-2.622574 -12.47983,-5.968617 -5.87819,-3.346043 -10.4903,-7.867722 -4.61211,-4.52168 -7.32512,-10.671164 -2.62258,-6.239918 -2.62258,-14.650242 0,-11.213765 5.33559,-19.171921 5.42601,-7.958156 15.19284,-12.208534 9.85726,-4.250379 22.97013,-4.250379 10.39986,0 19.53366,2.170406 9.22422,2.170406 18.08671,6.149484 l -6.87295,17.453683 q -8.13902,-3.346043 -15.82588,-5.335582 -7.59642,-1.989539 -15.55457,-1.989539 -6.87296,0 -11.66594,2.079973 -4.79298,2.079973 -7.32512,5.878183 -2.4417,3.707777 -2.4417,8.862492 0,5.78775 2.80344,9.766828 2.89387,3.888644 8.86249,7.144253 6.05905,3.25561 15.55458,7.234688 10.94246,4.521679 18.53888,9.495527 7.68686,4.973847 11.75637,11.937238 4.06951,6.87295 4.06951,17.27281 z m 63.93656,-96.221339 q 25.5927,0 37.34907,10.490297 11.75637,10.490296 11.75637,29.390917 0,8.591191 -2.71301,16.368479 -2.62257,7.686856 -8.68162,13.655473 -6.05906,5.878183 -16.00675,9.314663 -9.85726,3.43647 -24.32664,3.43647 h -14.10764 v 49.55761 H 461.52615 V 27.094471 Z m -1.44694,17.996285 h -15.28328 v 46.573299 h 11.8468 q 10.219,0 17.36325,-2.351274 7.14426,-2.441707 10.85203,-7.686855 3.70778,-5.245148 3.70778,-13.836339 0,-11.485066 -6.96339,-17.091949 -6.87295,-5.606882 -21.52319,-5.606882 z M 632.44563,159.30838 594.37309,48.888967 h -0.81391 q 0.27131,3.707777 0.63304,10.128562 0.36173,6.420785 0.63303,13.745905 0.27131,7.325121 0.27131,14.017207 V 159.30838 H 575.38203 V 27.094471 h 30.47612 l 36.62561,105.535999 h 0.5426 L 680.91803,27.094471 h 30.38569 V 159.30838 H 690.59443 V 85.695438 q 0,-6.059051 0.18086,-13.112871 0.2713,-7.05382 0.54261,-13.384171 0.36173,-6.330351 0.5426,-10.128562 h -0.72347 L 651.61755,159.30838 Z"
       id="text3"
       style="font-weight:600;font-size:185.208px;font-family:'Open Sans';-inkscape-font-specification:'Open Sans, Semi-Bold';stroke-width:0.675446"
       aria-label="LiSPM" />
    <g
       id="g1">
      <circle
         style="fill:#ff0000;stroke-width:0.264583"
         id="path1"
         cx="45.827175"
         cy="105.83333"
         r="26.458328" />
      <circle
         style="fill:#ff0000;stroke-width:0.264583"
         id="path1-6"
         cx="45.827175"
         cy="52.916664"
         r="26.458328" />
      <circle
         style="fill:#ff0000;stroke-width:0.264583"
         id="path1-1"
         cx="45.827175"
         cy="158.74998"
         r="26.458328" />
      <circle
         style="fill:#ff0000;stroke-width:0.264583"
         id="path1-68"
         cx="91.65435"
         cy="185.20831"
         r="26.458328" />
      <circle
         style="fill:#ff0000;stroke-width:0.264583"
         id="path1-4"
         cx="137.48152"
         cy="158.74998"
         r="26.458328" />
      <circle
         style="fill:#ff0000;stroke-width:0.264583"
         id="path1-8"
         cx="137.48152"
         cy="105.83333"
         r="26.458328" />
      <circle
         style="fill:#ff0000;stroke-width:0.264583"
         id="path1-7"
         cx="137.48152"
         cy="-7.6987305e-12"
         r="26.458328" />
    </g>
  </g>
</svg>
